HIERARCHY
ROOT Hips
{
	OFFSET 0.000000 0.000000 0.000000
	CHANNELS 6 Xposition Yposition Zposition Xrotation Yrotation Zrotation
	JOINT LeftUpLeg_virtual
	{
		OFFSET 0.000000 0.000000 0.000000
		CHANNELS 3 Xrotation Yrotation Zrotation
		JOINT LeftUpLeg
		{
			OFFSET 13.026900 -6.336304 -1.092800
			CHANNELS 3 Xrotation Yrotation Zrotation
			JOINT LeftLeg
			{
				OFFSET 0.524474 -46.096886 9.782700
				CHANNELS 3 Xrotation Yrotation Zrotation
				JOINT LeftFoot
				{
					OFFSET -0.524474 -53.427422 -12.948200
					CHANNELS 3 Xrotation Yrotation Zrotation
					JOINT LeftToeBase
					{
						OFFSET 0.192200 -14.009700 16.364100
						CHANNELS 3 Xrotation Yrotation Zrotation
						JOINT LeftToe_End
						{
							OFFSET -1.784700 -0.561700 9.474800
							CHANNELS 3 Xrotation Yrotation Zrotation
							End Site
							{
								OFFSET 0 0 0
							}
						}
					}
				}
			}
		}
	}
	JOINT RightUpLeg_virtual
	{
		OFFSET 0.000000 0.000000 0.000000
		CHANNELS 3 Xrotation Yrotation Zrotation
		JOINT RightUpLeg
		{
			OFFSET -12.883000 -6.336304 -1.092800
			CHANNELS 3 Xrotation Yrotation Zrotation
			JOINT RightLeg
			{
				OFFSET -0.524587 -46.096825 9.782800
				CHANNELS 3 Xrotation Yrotation Zrotation
				JOINT RightFoot
				{
					OFFSET 0.524587 -53.427383 -12.948300
					CHANNELS 3 Xrotation Yrotation Zrotation
					JOINT RightToeBase
					{
						OFFSET -0.192200 -14.009700 16.364100
						CHANNELS 3 Xrotation Yrotation Zrotation
						JOINT RightToe_End
						{
							OFFSET 1.784700 -0.561700 9.474800
							CHANNELS 3 Xrotation Yrotation Zrotation
							End Site
							{
								OFFSET 0 0 0
							}
						}
					}
				}
			}
		}
	}
	JOINT Spine_virtual
	{
		OFFSET 0.000000 0.000000 0.000000
		CHANNELS 3 Xrotation Yrotation Zrotation
		JOINT Spine
		{
			OFFSET 0.072000 7.257294 -0.789700
			CHANNELS 3 Xrotation Yrotation Zrotation
			JOINT Spine1
			{
				OFFSET 0.000000 12.508769 -0.658067
				CHANNELS 3 Xrotation Yrotation Zrotation
				JOINT Spine1_split
				{
					OFFSET 0.000000 12.508769 -0.658067
					CHANNELS 3 Xrotation Yrotation Zrotation
					JOINT Spine2
					{
						OFFSET 0.000000 12.508769 -0.658067
						CHANNELS 3 Xrotation Yrotation Zrotation
						JOINT Neck_virtual
						{
							OFFSET 0.000000 0.000000 0.000000
							CHANNELS 3 Xrotation Yrotation Zrotation
							JOINT Neck
							{
								OFFSET 0.000000 14.033295 7.520400
								CHANNELS 3 Xrotation Yrotation Zrotation
								JOINT Head
								{
									OFFSET 0.000000 8.198502 5.703100
									CHANNELS 3 Xrotation Yrotation Zrotation
									JOINT HeadTop_End
									{
										OFFSET 0.000000 17.760803 13.332701
										CHANNELS 3 Xrotation Yrotation Zrotation
										End Site
										{
											OFFSET 0 0 0
										}
									}
								}
							}
						}
						JOINT LeftShoulder_virtual
						{
							OFFSET 0.000000 0.000000 0.000000
							CHANNELS 3 Xrotation Yrotation Zrotation
							JOINT LeftShoulder
							{
								OFFSET 6.292450 5.785301 -0.669000
								CHANNELS 3 Xrotation Yrotation Zrotation
								JOINT LeftShoulder_split
								{
									OFFSET 6.292450 5.785301 -0.669000
									CHANNELS 3 Xrotation Yrotation Zrotation
									JOINT LeftArm
									{
										OFFSET 13.907140 -6.093903 1.965100
										CHANNELS 3 Xrotation Yrotation Zrotation
										JOINT LeftForeArm
										{
											OFFSET 34.140198 0.000000 0.000000
											CHANNELS 3 Xrotation Yrotation Zrotation
											JOINT LeftHand
											{
												OFFSET 40.960209 0.000000 0.000000
												CHANNELS 3 Xrotation Yrotation Zrotation
												End Site
												{
													OFFSET 0 0 0
												}
											}
										}
									}
								}
							}
						}
						JOINT RightShoulder_virtual
						{
							OFFSET 0.000000 0.000000 0.000000
							CHANNELS 3 Xrotation Yrotation Zrotation
							JOINT RightShoulder
							{
								OFFSET -6.292450 5.785301 -0.669000
								CHANNELS 3 Xrotation Yrotation Zrotation
								JOINT RightShoulder_split
								{
									OFFSET -6.292450 5.785301 -0.669000
									CHANNELS 3 Xrotation Yrotation Zrotation
									JOINT RightArm
									{
										OFFSET -13.907140 -6.093903 1.965100
										CHANNELS 3 Xrotation Yrotation Zrotation
										JOINT RightForeArm
										{
											OFFSET -34.140198 0.000000 0.000000
											CHANNELS 3 Xrotation Yrotation Zrotation
											JOINT RightHand
											{
												OFFSET -40.960209 0.000000 0.000000
												CHANNELS 3 Xrotation Yrotation Zrotation
												End Site
												{
													OFFSET 0 0 0
												}
											}
										}
									}
								}
							}
						}
					}
				}
			}
		}
	}
}
MOTION
Frames: 8
Frame Time: 0.03333333
-5.626070 53.722633 -1.636887 0.000000 0.000000 0.000000 -176.638828 39.197301 171.066801 -85.357065 -21.036668 18.070136 108.827638 -9.292548 3.102571 -16.357897 22.672567 -18.231102 0.967653 -5.022049 1.820000 0.000000 0.000000 0.000000 -176.188568 41.877823 169.246883 -52.362764 19.650157 -10.154040 97.277207 2.839792 -2.565558 -20.729112 -22.685667 38.715500 -2.512757 3.196978 -16.436236 0.000000 0.000000 0.000000 -178.781158 39.848150 174.011732 7.818751 1.414856 -5.442526 6.260649 0.330217 -3.469226 0.096400 0.156015 -0.003771 0.000000 0.000000 0.000000 9.398293 3.593328 -2.732818 -11.302313 12.487160 12.879872 -13.471449 28.448809 -18.351410 0.000000 0.000000 0.000000 6.296472 2.271058 -3.985822 1.367874 -12.754682 -7.172734 -1.610926 -4.567792 -3.359400 -8.410931 -10.444559 -29.813291 58.363085 -36.585727 18.259399 0.000000 0.000000 0.000000 8.329623 2.007904 -2.809121 -4.876123 -8.110424 15.139370 -25.165091 -11.311673 5.347379 25.749560 3.958762 42.751882 19.528698 67.611756 12.083177 0.000000 0.000000 0.000000 
-5.632305 53.707569 -1.627670 0.000000 0.000000 0.000000 -176.660329 39.186745 171.056159 -85.404842 -21.032681 18.094175 108.827296 -9.302421 3.091285 -16.355055 22.644439 -18.231752 0.998193 -5.016415 1.828289 0.000000 0.000000 0.000000 -176.212747 41.861171 169.237293 -52.361285 19.624467 -10.180489 97.270370 2.842618 -2.568229 -20.732655 -22.697190 38.711730 -2.499906 3.187097 -16.435933 0.000000 0.000000 0.000000 -178.804667 39.835794 173.998659 7.803351 1.426860 -5.458602 6.272172 0.330806 -3.478144 0.097368 0.156269 -0.003436 0.000000 0.000000 0.000000 9.396733 3.593459 -2.740244 -11.370560 12.504211 12.916102 -13.484965 28.240592 -18.351059 0.000000 0.000000 0.000000 6.301841 2.268897 -3.992560 1.351723 -12.783862 -7.197080 -1.572627 -4.550665 -3.344997 -8.472316 -10.439874 -29.751413 58.406764 -36.656628 18.278923 0.000000 0.000000 0.000000 8.331886 2.007871 -2.820390 -4.900206 -8.123879 15.100587 -25.148509 -11.334789 5.330302 25.746951 4.054955 42.756725 19.491767 67.495649 12.159830 0.000000 0.000000 0.000000 
-5.634666 53.690826 -1.618797 0.000000 0.000000 0.000000 -176.676968 39.173324 171.041706 -85.447190 -21.030868 18.116039 108.828949 -9.309464 3.076278 -16.352673 22.620222 -18.229249 1.018100 -5.010920 1.834113 0.000000 0.000000 0.000000 -176.230027 41.844409 169.219043 -52.350705 19.603787 -10.205273 97.258970 2.846157 -2.571165 -20.729778 -22.706385 38.715633 -2.491241 3.179442 -16.435875 0.000000 0.000000 0.000000 -178.821511 39.819204 173.980259 7.779306 1.437655 -5.479060 6.288013 0.330603 -3.485910 0.097369 0.156538 -0.003527 0.000000 0.000000 0.000000 9.403609 3.592395 -2.746610 -11.425931 12.523679 12.948176 -13.490067 28.047825 -18.336088 0.000000 0.000000 0.000000 6.312780 2.265836 -3.999216 1.336900 -12.827979 -7.223628 -1.540670 -4.519359 -3.332167 -8.536904 -10.418504 -29.665639 58.439249 -36.741958 18.302421 0.000000 0.000000 0.000000 8.340264 2.006772 -2.830272 -4.924502 -8.155807 15.060393 -25.134024 -11.364642 5.315160 25.730386 4.159367 42.767790 19.463269 67.368150 12.223134 0.000000 0.000000 0.000000 
-5.633386 53.672253 -1.610172 0.000000 0.000000 0.000000 -176.689358 39.156163 171.023565 -85.494543 -21.038610 18.132366 108.839331 -9.312860 3.059777 -16.343280 22.598337 -18.223696 1.023905 -5.005260 1.835788 0.000000 0.000000 0.000000 -176.241311 41.828116 169.193512 -52.328794 19.589131 -10.225862 97.245918 2.848487 -2.573735 -20.724807 -22.715537 38.726114 -2.485877 3.175065 -16.436212 0.000000 0.000000 0.000000 -178.832207 39.797948 173.958593 7.747387 1.448437 -5.501453 6.308236 0.329751 -3.491527 0.096254 0.157777 -0.004480 0.000000 0.000000 0.000000 9.418442 3.591019 -2.750595 -11.468359 12.543502 12.977686 -13.484465 27.877750 -18.304367 0.000000 0.000000 0.000000 6.329761 2.262612 -4.004478 1.324356 -12.890526 -7.248453 -1.514213 -4.479458 -3.322583 -8.597208 -10.372415 -29.558279 58.463154 -36.855496 18.338360 0.000000 0.000000 0.000000 8.355351 2.005166 -2.837580 -4.946627 -8.202568 15.018396 -25.122686 -11.395112 5.302079 25.707292 4.264889 42.792972 19.445841 67.220707 12.269919 0.000000 0.000000 0.000000 
-5.628933 53.649803 -1.604778 0.000000 0.000000 0.000000 -176.697076 39.134914 171.000780 -85.555653 -21.061665 18.139586 108.861536 -9.314318 3.043618 -16.316425 22.575945 -18.222238 1.021905 -4.999009 1.832793 0.000000 0.000000 0.000000 -176.248100 41.811198 169.163104 -52.289804 19.581341 -10.242445 97.238528 2.847343 -2.574243 -20.728381 -22.728607 38.733282 -2.476654 3.173595 -16.435732 0.000000 0.000000 0.000000 -178.838408 39.771324 173.937693 7.710384 1.461101 -5.522383 6.334109 0.328961 -3.493399 0.094567 0.159765 -0.005694 0.000000 0.000000 0.000000 9.440395 3.589975 -2.751447 -11.500489 12.561306 13.006308 -13.466117 27.738114 -18.256653 0.000000 0.000000 0.000000 6.353506 2.259799 -4.006708 1.315085 -12.971236 -7.270146 -1.495727 -4.448617 -3.317431 -8.646378 -10.299469 -29.434891 58.489574 -37.010978 18.400285 0.000000 0.000000 0.000000 8.377620 2.004007 -2.840864 -4.964061 -8.261407 14.970907 -25.104669 -11.414520 5.291533 25.679085 4.365546 42.840265 19.442690 67.059077 12.293904 0.000000 0.000000 0.000000 
-5.622555 53.622288 -1.604328 0.000000 0.000000 0.000000 -176.698934 39.109055 170.971670 -85.637848 -21.100133 18.135361 108.894526 -9.315945 3.029088 -16.267356 22.551481 -18.230246 1.021859 -4.991936 1.825832 0.000000 0.000000 0.000000 -176.249084 41.792094 169.127901 -52.230112 19.581879 -10.254451 97.239013 2.841164 -2.572580 -20.749580 -22.749376 38.733234 -2.463074 3.175322 -16.433379 0.000000 0.000000 0.000000 -178.840539 39.741210 173.917571 7.673739 1.476753 -5.538606 6.367226 0.328591 -3.490601 0.093313 0.161981 -0.006610 0.000000 0.000000 0.000000 9.469431 3.589703 -2.748578 -11.525181 12.574628 13.035368 -13.432857 27.641974 -18.198626 0.000000 0.000000 0.000000 6.385044 2.257469 -4.004335 1.309952 -13.064973 -7.284761 -1.479350 -4.424392 -3.317522 -8.684215 -10.200654 -29.303687 58.529291 -37.215081 18.499391 0.000000 0.000000 0.000000 8.408223 2.003710 -2.839397 -4.974826 -8.329271 14.913551 -25.086298 -11.422123 5.276748 25.642706 4.453146 42.914082 19.458336 66.898541 12.286197 0.000000 0.000000 0.000000 
-5.616017 53.589752 -1.606110 0.000000 0.000000 0.000000 -176.694221 39.078664 170.937136 -85.738723 -21.151615 18.118583 108.934107 -9.318962 3.015815 -16.198707 22.524955 -18.248686 1.028497 -4.984307 1.818033 0.000000 0.000000 0.000000 -176.243073 41.769441 169.089898 -52.149632 19.593212 -10.261825 97.252407 2.831075 -2.570972 -20.788871 -22.777924 38.730144 -2.457118 3.181307 -16.428377 0.000000 0.000000 0.000000 -178.837520 39.708462 173.897026 7.642277 1.496485 -5.548097 6.408433 0.328624 -3.483336 0.092468 0.165023 -0.007691 0.000000 0.000000 0.000000 9.505240 3.590566 -2.742907 -11.543373 12.580658 13.067608 -13.379756 27.599584 -18.138950 0.000000 0.000000 0.000000 6.424629 2.255424 -3.997232 1.309031 -13.162478 -7.291897 -1.461076 -4.410695 -3.319785 -8.721152 -10.080817 -29.173930 58.587928 -37.462584 18.639385 0.000000 0.000000 0.000000 8.446576 2.004459 -2.834025 -4.977158 -8.402590 14.843237 -25.069682 -11.424905 5.257972 25.589886 4.528935 43.016675 19.498652 66.748905 12.237918 0.000000 0.000000 0.000000 
-5.611045 53.553349 -1.610069 0.000000 0.000000 0.000000 -176.682295 39.044568 170.899761 -85.845991 -21.209978 18.090673 108.971686 -9.323387 3.002388 -16.121374 22.499934 -18.272552 1.041978 -4.976972 1.812361 0.000000 0.000000 0.000000 -176.229604 41.742616 169.051021 -52.048743 19.616010 -10.266451 97.280492 2.820620 -2.572099 -20.839595 -22.810037 38.733982 -2.469143 3.192226 -16.421414 0.000000 0.000000 0.000000 -178.828095 39.672983 173.874131 7.618475 1.520151 -5.550756 6.456892 0.328535 -3.473424 0.092916 0.167429 -0.008629 0.000000 0.000000 0.000000 9.546949 3.591724 -2.736724 -11.556571 12.577299 13.104271 -13.302117 27.618005 -18.085134 0.000000 0.000000 0.000000 6.471320 2.253004 -3.987129 1.312611 -13.255552 -7.292540 -1.442411 -4.400299 -3.320875 -8.769030 -9.957443 -29.051991 58.657036 -37.727971 18.804699 0.000000 0.000000 0.000000 8.491729 2.005988 -2.826365 -4.970305 -8.478846 14.760401 -25.054054 -11.420163 5.234363 25.514086 4.593500 43.149218 19.569431 66.598886 12.143544 0.000000 0.000000 0.000000 
